Coordinates
version=1
nRows=20
nColumns=34
inDegrees=yes

Units are S.I. units (second, meters, Newtons, ...)
Angles are in degrees.

endheader
time	pelvis_tilt	pelvis_list	pelvis_rotation	pelvis_tx	pelvis_ty	pelvis_tz	hip_flexion_r	hip_adduction_r	hip_rotation_r	knee_angle_r	ankle_angle_r	subtalar_angle_r	mtp_angle_r	hip_flexion_l	hip_adduction_l	hip_rotation_l	knee_angle_l	socket_flexion	socket_adduction	socket_rotation	socket_tx	socket_ty	socket_tz	pros_ankle_rx	pros_ankle_ry	pros_ankle_rz	pros_ankle_tx	pros_ankle_ty	pros_ankle_tz	foot_flex	lumbar_extension	lumbar_bending	lumbar_rotation
      0.89166667	      0.45276280	    -10.19182956	      3.23967442	      0.44340626	      1.04013119	      0.40684586	     10.06585673	     13.52338024	     -6.82032677	    -18.63724271	      8.11304256	      6.60611013	      9.77350878	     17.85575622	    -18.31807549	     -1.35610346	    -72.87388423	     -5.47307337	      0.00000000	      0.00000000	      0.00000000	     -0.01524478	      0.00000000	      0.00000000	      0.00000000	      0.00000000	      0.00000000	      0.00000000	      0.00000000	     -1.57627433	    -19.96932324	      3.67879013	      4.38819294
      0.89583333	      0.62890364	     -9.78539320	      3.31189019	      0.44898608	      1.04194458	      0.40634275	      9.38518078	     12.97650096	     -7.37162562	    -18.42791209	      8.10913872	      7.67413294	     10.88049947	     17.88166466	    -17.63985556	     -1.24397038	    -71.88891906	     -5.17536919	      0.00000000	      0.00000000	      0.00000000	     -0.01601598	      0.00000000	      0.00000000	      0.00000000	      0.00000000	      0.00000000	      0.00000000	      0.00000000	     -1.57320370	    -20.13043580	      3.25715082	      4.08894486
      0.90000000	      0.55649745	     -9.59316107	      3.29100743	      0.45412347	      1.04314056	      0.40602456	      8.93876178	     12.77448923	     -7.34232040	    -18.07826081	      7.99167816	      7.77080196	     11.00796676	     18.47134603	    -17.22173573	     -1.06164607	    -71.40787048	     -5.12570208	      0.00000000	      0.00000000	      0.00000000	     -0.01558771	      0.00000000	      0.00000000	      0.00000000	      0.00000000	      0.00000000	      0.00000000	      0.00000000	     -1.57545713	    -20.04786744	      3.04471079	      4.04858664
      0.90416667	      0.51199253	     -9.43665465	      3.24758975	      0.45917844	      1.04432140	      0.40577839	      8.47812346	     12.62812604	     -7.24217774	    -17.75904187	      8.00230282	      7.90871306	     11.06598046	     19.06289747	    -16.86524078	     -0.90178672	    -70.99315291	     -5.15043829	      0.00000000	      0.00000000	      0.00000000	     -0.01486551	      0.00000000	      0.00000000	      0.00000000	      0.00000000	      0.00000000	      0.00000000	      0.00000000	     -1.57510937	    -20.04503435	      2.85416377	      4.06368642
      0.90833333	      0.45810862	     -9.30258423	      3.14528689	      0.46422991	      1.04540645	      0.40555960	      8.06312533	     12.48129233	     -7.20711187	    -17.50349096	      8.01260238	      8.00520611	     11.09306725	     19.64156041	    -16.56744825	     -0.84339563	    -70.59050131	     -5.21966017	      0.00000000	      0.00000000	      0.00000000	     -0.01413825	      0.00000000	      0.00000000	      0.00000000	      0.00000000	      0.00000000	      0.00000000	      0.00000000	     -1.58695108	    -20.09086853	      2.77870847	      4.08795599
      0.91250000	      0.38528920	     -9.00923697	      3.18576748	      0.46963770	      1.04679667	      0.40516505	      7.56136472	     12.14530516	     -7.33217134	    -17.06590244	      7.68093734	      8.30177507	     11.28410319	     19.97485346	    -15.99843515	     -0.66425294	    -69.54714058	     -4.94229688	      0.00000000	      0.00000000	      0.00000000	     -0.01454408	      0.00000000	      0.00000000	      0.00000000	      0.00000000	      0.00000000	      0.00000000	      0.00000000	     -1.57324236	    -19.83471775	      2.37181888	      3.92842001
      0.91666667	      0.61559685	     -8.65915668	      3.08771126	      0.47491681	      1.04864456	      0.40503187	      6.79089369	     11.75854304	     -7.42044583	    -16.77450533	      7.69033478	      8.92430431	     12.10000403	     19.82621079	    -15.48326400	     -0.76963950	    -68.35762377	     -4.66620285	      0.00000000	      0.00000000	      0.00000000	     -0.01514680	      0.00000000	      0.00000000	      0.00000000	      0.00000000	      0.00000000	      0.00000000	      0.00000000	     -1.57673871	    -20.15060112	      1.95557827	      3.84984354
      0.92083333	      0.54370118	     -8.54312550	      3.04882161	      0.47995581	      1.04967258	      0.40474431	      6.36026433	     11.63164573	     -7.41482540	    -16.41982973	      7.56948969	      9.07697087	     12.19244305	     20.39476743	    -15.17858981	     -0.63023700	    -67.80189692	     -4.71018777	      0.00000000	      0.00000000	      0.00000000	     -0.01437466	      0.00000000	      0.00000000	      0.00000000	      0.00000000	      0.00000000	      0.00000000	      0.00000000	     -1.56219916	    -20.08212142	      1.79779689	      3.90608547
      0.92500000	      0.47295080	     -8.41980052	      3.03278304	      0.48482675	      1.05071004	      0.40440629	      5.94169758	     11.51590757	     -7.29157835	    -16.08808277	      7.50106365	      9.26344833	     12.26266424	     20.97235709	    -14.84933570	     -0.45165112	    -67.19098902	     -4.71608310	      0.00000000	      0.00000000	      0.00000000	     -0.01358394	      0.00000000	      0.00000000	      0.00000000	      0.00000000	      0.00000000	      0.00000000	      0.00000000	     -1.58482699	    -20.04112464	      1.63630212	      3.93780329
      0.92916667	      0.38439799	     -8.26311672	      2.92577268	      0.49016354	      1.05179126	      0.40417620	      5.51318141	     11.32048652	     -7.38974536	    -15.73133204	      7.26818629	      9.45288691	     12.40557970	     21.31397586	    -14.52416793	     -0.44840226	    -66.26026358	     -4.65936064	      0.00000000	      0.00000000	      0.00000000	     -0.01353128	      0.00000000	      0.00000000	      0.00000000	      0.00000000	      0.00000000	      0.00000000	      0.00000000	     -1.54986936	    -19.87900931	      1.45311714	      3.90311658
      0.93333333	      0.36971035	     -8.22739348	      2.76305601	      0.49498518	      1.05263858	      0.40410600	      5.17945560	     11.26867412	     -7.38892948	    -15.68241859	      7.28345086	      9.49942695	     12.42608276	     21.80523638	    -14.38557819	     -0.43855824	    -65.80360152	     -4.89758917	      0.00000000	      0.00000000	      0.00000000	     -0.01254564	      0.00000000	      0.00000000	      0.00000000	      0.00000000	      0.00000000	      0.00000000	      0.00000000	     -1.53363433	    -19.96722430	      1.44714181	      3.92106804
      0.93750000	      0.25411658	     -7.96425490	      2.72834140	      0.50051251	      1.05393755	      0.40382815	      4.63547108	     10.98100740	     -7.39515035	    -15.05288798	      6.91103916	      9.89145578	     12.67742035	     21.98020335	    -13.91472373	     -0.41814260	    -64.34916876	     -4.52642328	      0.00000000	      0.00000000	      0.00000000	     -0.01312505	      0.00000000	      0.00000000	      0.00000000	      0.00000000	      0.00000000	      0.00000000	      0.00000000	     -1.52150796	    -19.66767712	      1.09419275	      3.91332872
      0.94166667	      0.21232713	     -7.87984865	      2.61797512	      0.50521478	      1.05486616	      0.40367671	      4.26195626	     10.89653386	     -7.29933882	    -14.84152680	      6.94307296	     10.03888860	     12.76422068	     22.47683777	    -13.69664623	     -0.37323458	    -63.71225413	     -4.64567750	      0.00000000	      0.00000000	      0.00000000	     -0.01206556	      0.00000000	      0.00000000	      0.00000000	      0.00000000	      0.00000000	      0.00000000	      0.00000000	     -1.53977966	    -19.80301814	      0.99886879	      3.95045034
      0.94583333	      0.21398327	     -7.87841590	      2.47006758	      0.50996843	      1.05559488	      0.40347597	      3.93207366	     10.86113075	     -7.30550054	    -14.82108129	      6.93475936	     10.08565561	     12.78532173	     22.92619206	    -13.59482846	     -0.35464239	    -63.20062474	     -4.92943084	      0.00000000	      0.00000000	      0.00000000	     -0.01106975	      0.00000000	      0.00000000	      0.00000000	      0.00000000	      0.00000000	      0.00000000	      0.00000000	     -1.49481927	    -19.84814267	      0.97553505	      3.96815459
      0.95000000	      0.15622203	     -7.49175628	      2.31808350	      0.51572271	      1.05722034	      0.40350845	      3.30353644	     10.44881125	     -7.26409104	    -14.18209783	      6.41632428	     10.61007912	     13.33655931	     22.60127359	    -13.06090262	     -0.56984644	    -60.91961195	     -4.18255221	      0.00000000	      0.00000000	      0.00000000	     -0.01291402	      0.00000000	      0.00000000	      0.00000000	      0.00000000	      0.00000000	      0.00000000	      0.00000000	     -1.48806587	    -19.62218536	      0.47271283	      3.99505643
      0.95416667	      0.17970639	     -7.50100831	      2.17990138	      0.52034012	      1.05787915	      0.40335863	      2.98353640	     10.43400285	     -7.27034042	    -14.20154265	      6.43938750	     10.63741858	     13.35567469	     23.05764883	    -12.98960286	     -0.56067609	    -60.45174350	     -4.52192512	      0.00000000	      0.00000000	      0.00000000	     -0.01165916	      0.00000000	      0.00000000	      0.00000000	      0.00000000	      0.00000000	      0.00000000	      0.00000000	     -1.43391830	    -19.69370769	      0.46213019	      4.01390306
      0.95833333	      0.47590371	     -7.09565928	      1.99446936	      0.52602698	      1.06000239	      0.40344552	      1.94042969	     10.00286149	     -7.20591827	    -13.48281034	      6.08051948	     11.30762328	     14.82790271	     22.25392423	    -12.50138303	     -0.90771176	    -58.02354111	     -3.78539610	      0.00000000	      0.00000000	      0.00000000	     -0.01349372	      0.00000000	      0.00000000	      0.00000000	      0.00000000	      0.00000000	      0.00000000	      0.00000000	     -1.40441116	    -20.04436040	     -0.11691957	      4.23647220
      0.96250000	      0.47792437	     -7.11811387	      1.85817851	      0.53060889	      1.06057830	      0.40325241	      1.64688205	      9.99052924	     -7.21784619	    -13.49769581	      6.08490102	     11.33215619	     14.83967828	     22.72486378	    -12.44057430	     -0.88270337	    -57.53185366	     -4.15041581	      0.00000000	      0.00000000	      0.00000000	     -0.01210196	      0.00000000	      0.00000000	      0.00000000	      0.00000000	      0.00000000	      0.00000000	      0.00000000	     -1.35765986	    -20.09971576	     -0.11535542	      4.24936738
      0.96666667	      0.19883095	     -7.09802582	      1.84779639	      0.53593956	      1.06112108	      0.40293549	      1.30494302	      9.98640545	     -7.13407410	    -12.84142666	      5.82547728	     11.64155891	     14.95578726	     23.21459864	    -12.24949452	     -0.74465022	    -56.31524375	     -4.05344773	      0.00000000	      0.00000000	      0.00000000	     -0.01179399	      0.00000000	      0.00000000	      0.00000000	      0.00000000	      0.00000000	      0.00000000	      0.00000000	     -1.34203269	    -19.68751695	     -0.14267647	      4.32515303
      0.97083333	      0.19296175	     -6.81388485	      1.53971419	      0.54125787	      1.06231445	      0.40315193	      0.84362909	      9.64886913	     -7.03815091	    -12.59827158	      5.57854867	     11.82085460	     15.71616357	     22.92362501	    -11.92691694	     -1.08924184	    -54.30099150	     -3.59648271	      0.00000000	      0.00000000	      0.00000000	     -0.01272112	      0.00000000	      0.00000000	      0.00000000	      0.00000000	      0.00000000	      0.00000000	      0.00000000	     -1.29011057	    -19.65530589	     -0.56625679	      4.40275412
